<svg enable-background="new 0 0 1000 1000" viewBox="0 0 1000 1000" xmlns="http://www.w3.org/2000/svg"><path d="m910.5 63h-821c-43.9 0-79.5 35.5-79.5 79.4v715.1c0 43.9 35.6 79.5 79.5 79.5h821.1c43.9 0 79.5-35.6 79.5-79.5v-715.1c-.1-43.9-35.7-79.4-79.6-79.4zm-847.5 105.9c0-29.2 23.7-53 53-53h768.1c28.1 0 51 22.1 52.7 49.9v131.8c-4.7 2-9.7 4.7-12.2 5.9l-422.2 214.4c-.8-.5-1.3-1.3-2.2-1.7l-415.8-225.4c-5.1-2.8-14.3-8.3-21.5-10v-111.9zm874 662.2c0 29.2-23.7 53-53 53h-768.1c-29.2 0-53-23.7-53-53v-457.6-34.2l412.9 223.8c5.2 2.7 10.7 6.5 16.1 8 2.4 1.6 5 2.7 8.1 2.7 2.6 0 4.9-.8 7-1.9 6.1-.8 12.8-5.3 18.6-8.2l411.1-208.8v72h.3z" fill="#fff"/></svg>