<svg height="500" width="500" xmlns="http://www.w3.org/2000/svg"><path d="m50 0c-27.7 0-50 22.3-50 50v400c0 27.7 22.3 50 50 50h400c27.7 0 50-22.3 50-50v-400c0-27.7-22.3-50-50-50zm278.0625 81.28125c.72561-.018386 1.45746 0 2.1875 0 24.33665 0 46.3209 10.27666 61.75 26.71875 19.28009-3.80078 37.4-10.85965 53.75-20.5625-6.32063 19.77403-19.73858 36.34782-37.21875 46.8125 17.1202-2.03436 33.43253-6.57324 48.59375-13.3125-11.33533 16.96953-25.69293 31.87663-42.21875 43.78125.15888 3.63334.25 7.30194.25 10.96875 0 111.8129-85.11108 240.75-240.75 240.75-47.77751 0-92.232352-14.01273-129.6875-38.03125 6.622019.78694 13.364543 1.1875 20.1875 1.1875 39.64856 0 76.10467-13.52297 105.0625-36.21875-37.01982-.67809-68.25684-25.16874-79.03125-58.78125 5.165343.99624 10.47913 1.53125 15.9375 1.53125 7.71876 0 15.18203-1.04325 22.28125-2.96875-38.710901-7.78571-67.875-41.94946-67.875-82.9375 0-.35997-.0064-.74216 0-1.09375 11.410689 6.33741 24.480153 10.15005 38.34375 10.59375-22.704155-15.16961-37.65625-41.05495-37.65625-70.40625 0-15.52119 4.185309-30.07187 11.46875-42.5625 41.7331 51.19316 104.08367 84.87339 174.40625 88.40625-1.4483-6.20342-2.1875-12.6592-2.1875-19.28125 0-46.00086 36.69258-83.435408 82.40625-84.59375z" fill="#4c67fd" transform=""/></svg>