<svg height="500" width="500" xmlns="http://www.w3.org/2000/svg"><path d="m50 0c-27.7 0-50 22.3-50 50v400c0 27.7 22.3 50 50 50h400c27.7 0 50-22.3 50-50v-400c0-27.7-22.3-50-50-50zm89.90625 105.78125c19.18215 0 34.71875 15.5366 34.71875 34.71875s-15.5366 34.75-34.71875 34.75-34.71875-15.56785-34.71875-34.75 15.5366-34.71875 34.71875-34.71875zm181.875 90.4375c3.92206.01397 7.92427.19898 13.3125.53125 26.18379 1.61467 55.36063 22.07992 56.21875 70.03125.70675 39.49279.5 102.08095.5 125.125h-59.53125c0-23.57471.25-72.27422.25-106.71875 0-15.67241-7.03504-36.75-32.09375-36.75-27.59728 0-34.3125 25.64431-34.3125 36.75 0 33.0736-.28125 85.75132-.28125 106.71875h-59.1875c0-35.34456.375-156.6535.375-190.90625 30.56726 0 45.19087-.0625 56.375-.0625 0 11.21723-.09375 18.72191-.09375 26.90625 9.33696-18.8513 34.83128-30.65459 45.75-31.21875 4.97858-.25724 8.79668-.42025 12.71875-.40625zm-211.59375 5.53125h59.34375v190.0625h-59.34375z" fill="#4c67fd" transform=""/></svg>